<svg version="1" xmlns="http://www.w3.org/2000/svg" width="346.667" height="346.667" viewBox="0 0 260.000000 260.000000"><path d="M89.1 25.5c-13 5.3-26.6 14.1-35.9 23.2-1.7 1.6-1.6 139.7.1 138.6.6-.4.7-.1.1.8-1.4 2.2-1.4 16 0 15.3.7-.4.6-.2-.2.7-.6.7-1.2 1.7-1.2 2.1 0 1.5 7.3 7.7 8.3 7.1.6-.3.7-.1.3.5-.6.9 10.1 9.2 11.9 9.2.4 0 1.4.7 2.2 1.6 1 .9 2.5 1.3 3.9 1 1.2-.3 2.6-.2 2.9.4.3.6-.1.7-.9.4-.9-.3-1.6-.2-1.6.4 0 .5 1 1.3 2.3 1.7l2.7.9c.3.1 2.2 1 4.2 2 2 .9 4.3 1.9 5.2 2 .8.1 1.9.5 2.2.9.4.4 1.3.7 2.1.7 1.7 0 1.7-5.1.1-6.9-1.1-1.1-1-1.2.1-.6s1.3.2.9-1.9c-.3-1.4-.2-2.6.1-2.6.8 0 .5-36.5-.3-37.9-.4-.6-.4-1.1.1-1.1.4 0 .8-3.3.9-7.3 0-5.4.5-8 2-10.2 5.5-8.5 8.5-9.5 28.6-9.5 14.6 0 16.7.2 20.2 2.1 4.9 2.6 5.9 3.6 8.3 8.5 1.9 3.6 2 6.1 2.1 35.4v31.5l2.5-.2c2.4-.1 11.3-3.7 17.2-6.9 1.7-.9 5.1-2.8 7.7-4.2 2.6-1.4 8-5.3 12-8.7l7.3-6.1.1-79.2.1-79.2-4.6-4.3c-3.9-3.7-10.9-8.7-18.6-13.4-4.7-2.9-22-10.3-23.9-10.3-.1 0-.1 15-.1 33.3-.1 35.9-.2 36.5-5.8 41.7-4.4 4.2-8.1 5-24.1 5-16.9 0-20.6-.7-24.9-4.7-6.1-5.9-6.1-5.7-6.2-41.7 0-20.2-.4-33.1-1-33.3-.6-.1-4.8 1.3-9.4 3.2zm-.4 174c0 .8-.4 1.2-.9.9-.5-.3-.6-1-.3-1.5.9-1.3 1.2-1.1 1.2.6zm-30 2c0 .8-.4 1.2-.9.9-.5-.3-.6-1-.3-1.5.9-1.3 1.2-1.1 1.2.6zm.3 4.5c0 .5-.5 1-1.1 1-.5 0-.7-.5-.4-1 .3-.6.8-1 1.1-1 .2 0 .4.4.4 1zm5.1 7.3c-1 .9-1.1.8-.5-.6.3-1 .9-1.5 1.2-1.2.3.3 0 1.1-.7 1.8zm20.7 3.2c-.3.3-.9-.2-1.2-1.2-.6-1.4-.5-1.5.5-.6.7.7 1 1.5.7 1.8zM75 218c0 .5-.5 1-1.1 1-.5 0-.7-.5-.4-1 .3-.6.8-1 1.1-1 .2 0 .4.4.4 1zm4 0c0 .5-.5 1-1.1 1-.5 0-.7-.5-.4-1 .3-.6.8-1 1.1-1 .2 0 .4.4.4 1zm0 4c0 .5-.5 1-1.1 1-.5 0-.7-.5-.4-1 .3-.6.8-1 1.1-1 .2 0 .4.4.4 1zm3.5 0c.3.5.1 1-.4 1-.6 0-1.1-.5-1.1-1 0-.6.2-1 .4-1 .3 0 .8.4 1.1 1zm4.5-.6c0 .3-.4.8-1 1.1-.5.3-1 .1-1-.4 0-.6.5-1.1 1-1.1.6 0 1 .2 1 .4zm7.3 2.1c-.7 2.1-1.2 1.9-1-.4 0-1.1.5-1.8.9-1.5.4.3.5 1.1.1 1.9zM32.3 77.5C28.7 80 22.2 94.8 18.4 109c-1.7 6.7-2.9 30.6-1.5 31.4.4.3.6 1.9.5 3.5-.1 1.7.2 3.1.6 3.1.4 0 .6 1 .2 2.2-.3 1.3-.1 1.9.5 1.5.6-.4.8.4.5 2-.4 1.9-.2 2.4.8 1.8.8-.5 1.1-.4.7.2-1 1.6 2.4 11.4 3.6 10.6.6-.3.7-.1.3.5-.7 1.2 2.4 9.2 3.7 9.2.4 0 .6.4.2.9-.3.5.1 1.5.8 2.3.7.7 1.6 2.1 2 3 .3 1 1.6 1.8 2.7 1.8 1.2 0 1.8-.4 1.5-1-.3-.5.1-1 .9-1 .9 0 1.6-.2 1.6-.5s-2-4.7-4.4-9.8c-2.5-5-4.8-10.4-5.1-11.9-.4-1.6-1.1-2.5-1.6-2.2-.5.3-.6-.2-.3-1 .3-.9.1-3-.5-4.8-1.8-5-2.5-12.3-2.4-22.8.2-14.2 3.1-24.9 11.1-40.8 3.6-7.2 3.6-7.2 1.6-9.2-1.8-1.8-2.2-1.9-4.1-.5zM223.2 78.3c-1.2 1.4-.5 5.7.9 5.7.5 0 .8.3.7.7-.1.5.8 2.8 2.1 5.3 6.2 12.3 9.3 24.5 9.5 37.8.4 15.3-2.8 28.1-10.6 43.7-2.2 4.4-3.9 8.2-3.8 8.5.6 1.6 2.5 3 4.1 3 3.3 0 11.1-16 15-30.8 2-7.4 3.5-30.4 2.2-32.5-.3-.5-.7-2.7-.9-4.9-.4-5.8-5.9-22.2-10.2-30.3-3.8-7.2-6.6-9.1-9-6.2z"/></svg>