<?xml version="1.0" standalone="no"?>
<!DOCTYPE svg PUBLIC "-//W3C//DTD SVG 20010904//EN"
 "http://www.w3.org/TR/2001/REC-SVG-20010904/DTD/svg10.dtd">
<svg version="1.0" xmlns="http://www.w3.org/2000/svg"
 width="512.000000pt" height="512.000000pt" viewBox="0 0 512.000000 512.000000"
 preserveAspectRatio="xMidYMid meet">
<metadata>
Created by potrace 1.14, written by Peter Selinger 2001-2017
</metadata>
<g transform="translate(0.000000,512.000000) scale(0.100000,-0.100000)"
fill="#000000" stroke="none">
<path d="M2475 5070 c-44 -26 -258 -149 -475 -275 -217 -125 -435 -251 -485
-280 -105 -62 -448 -260 -725 -420 -107 -62 -249 -144 -315 -182 l-120 -70 0
-1283 0 -1282 250 -146 c138 -79 270 -156 295 -170 25 -14 62 -36 82 -49 21
-12 40 -23 42 -23 2 0 75 -42 163 -93 223 -132 410 -240 468 -272 28 -15 88
-50 135 -78 103 -61 548 -319 679 -393 l94 -54 48 30 c27 16 52 30 54 30 3 0
34 17 68 39 34 21 139 83 232 136 154 89 599 347 910 528 66 38 136 79 155 90
35 20 180 103 212 122 9 6 50 29 90 52 40 23 154 88 253 146 l180 105 3 1280
2 1280 -32 20 c-18 11 -49 29 -68 40 -141 79 -620 358 -642 373 -15 10 -29 19
-31 19 -2 0 -151 86 -332 190 -180 105 -329 190 -331 190 -2 0 -40 23 -84 50
-44 28 -81 50 -83 50 -3 0 -80 44 -173 98 -93 54 -189 110 -214 124 -25 14
-79 45 -120 70 -41 24 -82 47 -90 50 -8 3 -51 -16 -95 -42z m127 -935 c20 -14
40 -25 43 -25 3 0 24 -12 46 -26 23 -14 60 -36 82 -49 23 -12 268 -154 544
-313 276 -160 514 -298 530 -307 15 -8 42 -24 58 -34 l30 -18 3 -800 2 -800
-40 -27 c-22 -14 -41 -26 -43 -26 -2 0 -80 -44 -173 -98 -93 -54 -189 -110
-214 -124 -175 -99 -870 -504 -892 -519 -16 -11 -28 -15 -28 -9 0 6 -8 14 -17
17 -10 4 -29 14 -43 24 -25 17 -452 263 -545 314 -27 15 -54 31 -60 35 -5 4
-26 17 -45 28 -19 10 -118 68 -220 127 -229 133 -245 142 -298 172 -24 14 -65
37 -90 52 l-47 27 -3 801 -2 801 47 29 c27 17 129 76 228 133 99 56 192 111
207 121 15 11 29 19 31 19 2 0 197 112 433 250 236 137 431 249 434 250 3 0
22 -11 42 -25z"/>
</g>
</svg>
