<svg xmlns="http://www.w3.org/2000/svg" xmlns:xlink="http://www.w3.org/1999/xlink" width="100%" height="auto" viewBox="0 0 241 59">
  <defs>
    <radialGradient id="as_harmony_logo-a" cx="97.836%" cy="95.024%" r="125.417%" fx="97.836%" fy="95.024%" gradientTransform="matrix(-.6112 -.75767 .70956 -.65264 .902 2.312)">
      <stop offset="0%" stop-color="#0344ED" stop-opacity=".824"/>
      <stop offset="100%" stop-color="#8F58FF" stop-opacity=".1"/>
    </radialGradient>
    <radialGradient id="as_harmony_logo-c" cx="17.658%" cy="12.415%" r="88.58%" fx="17.658%" fy="12.415%" gradientTransform="matrix(.62199 .7476 -.70013 .66416 .154 -.09)">
      <stop offset="0%" stop-color="#82FF6A"/>
      <stop offset="100%" stop-color="#FFF" stop-opacity=".1"/>
    </radialGradient>
    <radialGradient id="as_harmony_logo-d" cx="79.976%" cy="24.257%" r="122.219%" fx="79.976%" fy="24.257%" gradientTransform="matrix(-.8805 .34066 -.31338 -.92352 1.58 .194)">
      <stop offset="0%" stop-color="#45FFBA" stop-opacity=".469"/>
      <stop offset="100%" stop-color="#45ABFF" stop-opacity=".1"/>
    </radialGradient>
    <radialGradient id="as_harmony_logo-e" cx="13.604%" cy="65.638%" r="77.159%" fx="13.604%" fy="65.638%" gradientTransform="matrix(.70723 .65552 -.6139 .75518 .443 .072)">
      <stop offset="0%" stop-color="#00FF74"/>
      <stop offset="100%" stop-color="#00FF03" stop-opacity=".5"/>
    </radialGradient>
    <path id="as_harmony_logo-b" d="M39.8990394,0.00136265291 C44.9138005,1.44359265 49.400908,4.14520854 53.0002492,7.74449239 L53.0002492,51.2755543 C49.416984,54.8587625 44.9538649,57.5523034 39.9656002,58.9992961 C39.9809693,58.8717694 39.9911609,58.7428454 39.9962476,58.6126664 L40.0000581,58.4164744 L40.0000581,42.2572942 C40.0000581,39.5685394 37.8777514,37.375476 35.2169477,37.2619137 L35.0000581,37.2572942 L28.000101,37.2572942 C25.3113463,37.2572942 23.1182829,39.3796009 23.0047205,42.0404045 L23.000101,42.2572942 L23.000101,58.4164744 C23.000101,58.6135721 23.0115053,58.8080061 23.0336901,58.9991526 C18.045842,57.5521176 13.5826077,54.8583923 9.9993108,51.2749552 L9.9993108,7.74509151 C13.5986838,4.14557769 18.0859075,1.44377678 23.1014388,0.00143388131 C23.0515208,0.244855653 23.0194773,0.494755942 23.0065754,0.749702925 L23.000101,1.00627911 L23.000101,17.1654594 C23.000101,19.8542141 25.1224077,22.0472775 27.7832114,22.1608399 L28.000101,22.1654594 L35.0000581,22.1654594 C37.6888128,22.1654594 39.8818762,20.0431527 39.9954386,17.382349 L40.0000581,17.1654594 L40.0000581,1.00627911 C40.0000581,0.66207597 39.9652776,0.325996244 39.8990394,0.00136265291 Z M58.8618269,15.6183998 C61.6157034,20.3261612 63,25.0590805 63,29.8047182 C63,34.5503559 61.6157034,39.2832752 58.8618269,43.9910366 C58.5816975,44.4699187 57.9687604,44.6296487 57.4927936,44.3478036 C57.0168267,44.0659585 56.858069,43.4492673 57.1381984,42.9703852 C59.7176417,38.5608181 61.0000051,34.176409 61.0000051,29.8047182 C61.0000051,25.4330274 59.7176417,21.0486183 57.1381984,16.6390512 C56.858069,16.1601691 57.0168267,15.5434779 57.4927936,15.2616328 C57.9687604,14.9797876 58.5816975,15.1395177 58.8618269,15.6183998 Z M4.13817314,15.6183998 C4.41830249,15.1395177 5.03123958,14.9797876 5.50720644,15.2616328 C5.98317329,15.5434779 6.14193096,16.1601691 5.8618016,16.6390512 C3.28235832,21.0486183 1.99999495,25.4330274 1.99999495,29.8047182 C1.99999495,34.176409 3.28235832,38.5608181 5.8618016,42.9703852 C6.14193096,43.4492673 5.98317329,44.0659585 5.50720644,44.3478036 C5.03123958,44.6296487 4.41830249,44.4699187 4.13817314,43.9910366 C1.38429656,39.2832752 4.35207426e-14,34.5503559 4.35207426e-14,29.8047182 C4.35207426e-14,25.0590805 1.38429656,20.3261612 4.13817314,15.6183998 Z"/>
  </defs>
  <g fill="none" fill-rule="evenodd">
    <text fill="#FFF" font-family="Barlow-Bold, Barlow" font-size="42" font-weight="bold" transform="translate(75 2)">
      <tspan x="0" y="42">Harmony</tspan>
    </text>
    <use fill="url(#as_harmony_logo-a)" xlink:href="#as_harmony_logo-b"/>
    <use fill="url(#as_harmony_logo-c)" xlink:href="#as_harmony_logo-b"/>
    <use fill="url(#as_harmony_logo-d)" xlink:href="#as_harmony_logo-b"/>
    <use fill="url(#as_harmony_logo-e)" fill-opacity=".2" xlink:href="#as_harmony_logo-b"/>
  </g>
</svg>
