<svg viewBox="0 0 202 49" version="1.1" xmlns="http://www.w3.org/2000/svg" xmlns:xlink="http://www.w3.org/1999/xlink">
    <g id="1440+---Widescreen" stroke="none" stroke-width="1" fill="none" fill-rule="evenodd">
        <g id="Home---Wide" transform="translate(-402.000000, -248.000000)" fill="#FFFFFF">
            <g id="Header" transform="translate(402.000000, 32.000000)">
                <g id="as_logotype" transform="translate(0.000000, 216.000000)">
                    <path d="M57.0086134,32.5202691 C56.8783818,32.5202691 56.7725702,32.4800796 56.6911754,32.3996996 C56.6097806,32.3193195 56.5690838,32.214827 56.5690838,32.0862189 L56.5690838,16.074592 C56.5690838,15.9459839 56.6097806,15.8414914 56.6911754,15.7611114 C56.7725702,15.6807313 56.8783818,15.6405419 57.0086134,15.6405419 L60.1585756,15.6405419 C60.3864809,15.6405419 60.5574074,15.7369965 60.6713601,15.9299086 L63.9189955,21.1143963 C64.0003902,21.2269283 64.0817838,21.2269283 64.1631786,21.1143963 L67.4352322,15.9299086 C67.5491849,15.7369965 67.7201114,15.6405419 67.9480168,15.6405419 L71.0979789,15.6405419 C71.2282105,15.6405419 71.3340221,15.6807313 71.4154169,15.7611114 C71.4968117,15.8414914 71.5375085,15.9459839 71.5375085,16.074592 L71.5375085,32.0862189 C71.5375085,32.214827 71.4968117,32.3193195 71.4154169,32.3996996 C71.3340221,32.4800796 71.2282105,32.5202691 71.0979789,32.5202691 L67.9235985,32.5202691 C67.7933668,32.5202691 67.6875552,32.4800796 67.6061604,32.3996996 C67.5247656,32.3193195 67.4840689,32.214827 67.4840689,32.0862189 L67.4840689,22.6576856 C67.4840689,22.5773056 67.4596508,22.5290782 67.4108139,22.5130022 C67.3619771,22.4969262 67.3212803,22.5290778 67.2887224,22.6094578 L65.3108392,25.7924921 C65.1968865,25.9854042 65.02596,26.0818588 64.7980546,26.0818588 L63.3085377,26.0818588 C63.0806323,26.0818588 62.9097058,25.9854042 62.7957531,25.7924921 L60.81787,22.6094578 C60.785312,22.5290778 60.7446153,22.4969262 60.6957784,22.5130022 C60.6469415,22.5290782 60.6225235,22.5773056 60.6225235,22.6576856 L60.6225235,32.0862189 C60.6225235,32.214827 60.5818267,32.3193195 60.5004319,32.3996996 C60.4190371,32.4800796 60.3132255,32.5202691 60.1829939,32.5202691 L57.0086134,32.5202691 Z M80.7350723,32.7855219 C79.4164769,32.7855219 78.2566187,32.5242907 77.255463,32.0018203 C76.2543072,31.4793499 75.4769988,30.7438835 74.9235143,29.7953988 C74.3700298,28.8469142 74.0932917,27.7457239 74.0932917,26.4917951 L74.0932917,21.6690159 C74.0932917,20.447239 74.3700298,19.3661435 74.9235143,18.4256969 C75.4769988,17.4852502 76.2543072,16.7538027 77.255463,16.2313323 C78.2566187,15.708862 79.4164769,15.4476307 80.7350723,15.4476307 C82.0536677,15.4476307 83.2175955,15.708862 84.2268908,16.2313323 C85.236186,16.7538027 86.0175641,17.4852502 86.5710486,18.4256969 C87.1245331,19.3661435 87.4012712,20.447239 87.4012712,21.6690159 L87.4012712,26.4917951 C87.4012712,27.7457239 87.1245331,28.8469142 86.5710486,29.7953988 C86.0175641,30.7438835 85.236186,31.4793499 84.2268908,32.0018203 C83.2175955,32.5242907 82.0536677,32.7855219 80.7350723,32.7855219 Z M80.7350723,29.3613487 C81.5164622,29.3613487 82.1472622,29.1121743 82.6274914,28.6138179 C83.1077206,28.1154616 83.3478316,27.4483171 83.3478316,26.6123646 L83.3478316,21.6207881 C83.3478316,20.8009115 83.1077206,20.137786 82.6274914,19.6313917 C82.1472622,19.1249973 81.5164622,18.8718039 80.7350723,18.8718039 C79.9699614,18.8718039 79.3473007,19.1249973 78.8670715,19.6313917 C78.3868423,20.137786 78.1467313,20.8009115 78.1467313,21.6207881 L78.1467313,26.6123646 C78.1467313,27.4483171 78.3868423,28.1154616 78.8670715,28.6138179 C79.3473007,29.1121743 79.9699614,29.3613487 80.7350723,29.3613487 Z M100.652275,23.6945831 C100.587159,23.7267352 100.554601,23.7669246 100.554601,23.8151526 C100.554601,23.8633807 100.587159,23.9035701 100.652275,23.9357221 C102.101102,24.6912946 102.825504,25.9612804 102.825504,27.7457177 C102.825504,29.3533188 102.263889,30.5509636 101.140641,31.3386882 C100.017393,32.1264127 98.5441696,32.5202691 96.7209266,32.5202691 L90.3721657,32.5202691 C90.2419341,32.5202691 90.1361225,32.4800796 90.0547277,32.3996996 C89.9733329,32.3193195 89.9326361,32.214827 89.9326361,32.0862189 L89.9326361,16.074592 C89.9326361,15.9459839 89.9733329,15.8414914 90.0547277,15.7611114 C90.1361225,15.6807313 90.2419341,15.6405419 90.3721657,15.6405419 L96.5255801,15.6405419 C98.5116127,15.6405419 100.013324,16.0102846 101.030758,16.7497811 C102.048193,17.4892776 102.556903,18.6869225 102.556903,20.3427516 C102.556903,21.9182007 101.922033,23.0354667 100.652275,23.6945831 Z M94.1570039,19.0647151 C94.0430512,19.0647151 93.9860758,19.1209803 93.9860758,19.2335124 L93.9860758,22.1754077 C93.9860758,22.2879398 94.0430512,22.344205 94.1570039,22.344205 L96.5255801,22.344205 C97.1930173,22.344205 97.7057967,22.203542 98.0639337,21.9222118 C98.4220707,21.6408816 98.6011365,21.2430063 98.6011365,20.7285739 C98.6011365,20.1980656 98.4220707,19.7881334 98.0639337,19.4987652 C97.7057967,19.209397 97.1930173,19.0647151 96.5255801,19.0647151 L94.1570039,19.0647151 Z M96.7209266,29.0719819 C97.3720848,29.0719819 97.8767248,28.9232811 98.2348619,28.6258749 C98.5929989,28.3284687 98.7720647,27.8984418 98.7720647,27.3357814 C98.7720647,26.7891971 98.5970686,26.3672081 98.247071,26.0698019 C97.8970735,25.7723957 97.3883638,25.6236948 96.7209266,25.6236948 L94.1570039,25.6236948 C94.0430512,25.6236948 93.9860758,25.67996 93.9860758,25.7924921 L93.9860758,28.9031847 C93.9860758,29.0157168 94.0430512,29.0719819 94.1570039,29.0719819 L96.7209266,29.0719819 Z M105.845235,32.5202691 C105.715004,32.5202691 105.609192,32.4800796 105.527797,32.3996996 C105.446403,32.3193195 105.405706,32.214827 105.405706,32.0862189 L105.405706,16.074592 C105.405706,15.9459839 105.446403,15.8414914 105.527797,15.7611114 C105.609192,15.6807313 105.715004,15.6405419 105.845235,15.6405419 L109.019616,15.6405419 C109.149848,15.6405419 109.255659,15.6807313 109.337054,15.7611114 C109.418449,15.8414914 109.459146,15.9459839 109.459146,16.074592 L109.459146,32.0862189 C109.459146,32.214827 109.418449,32.3193195 109.337054,32.3996996 C109.255659,32.4800796 109.149848,32.5202691 109.019616,32.5202691 L105.845235,32.5202691 Z M112.72306,32.5202691 C112.592828,32.5202691 112.487016,32.4800796 112.405622,32.3996996 C112.324227,32.3193195 112.28353,32.214827 112.28353,32.0862189 L112.28353,16.074592 C112.28353,15.9459839 112.324227,15.8414914 112.405622,15.7611114 C112.487016,15.6807313 112.592828,15.6405419 112.72306,15.6405419 L115.89744,15.6405419 C116.027672,15.6405419 116.133483,15.6807313 116.214878,15.7611114 C116.296273,15.8414914 116.33697,15.9459839 116.33697,16.074592 L116.33697,28.9272986 C116.33697,29.0398306 116.393945,29.0960958 116.507898,29.0960958 L124.101993,29.0960958 C124.232224,29.0960958 124.338036,29.1362853 124.419431,29.2166653 C124.500826,29.2970454 124.541522,29.4015379 124.541522,29.530146 L124.541522,32.0862189 C124.541522,32.214827 124.500826,32.3193195 124.419431,32.3996996 C124.338036,32.4800796 124.232224,32.5202691 124.101993,32.5202691 L112.72306,32.5202691 Z M138.818095,18.630665 C138.818095,18.7592731 138.777398,18.8637656 138.696003,18.9441456 C138.614608,19.0245257 138.508797,19.0647151 138.378565,19.0647151 L130.906562,19.0647151 C130.792609,19.0647151 130.735634,19.1209803 130.735634,19.2335124 L130.735634,22.103066 C130.735634,22.2155981 130.792609,22.2718633 130.906562,22.2718633 L135.619296,22.2718633 C135.749528,22.2718633 135.855339,22.3120527 135.936734,22.3924328 C136.018129,22.4728128 136.058826,22.5773053 136.058826,22.7059134 L136.058826,25.2378725 C136.058826,25.3664806 136.018129,25.4709731 135.936734,25.5513531 C135.855339,25.6317332 135.749528,25.6719226 135.619296,25.6719226 L130.906562,25.6719226 C130.792609,25.6719226 130.735634,25.7281878 130.735634,25.8407199 L130.735634,28.9272986 C130.735634,29.0398306 130.792609,29.0960958 130.906562,29.0960958 L138.378565,29.0960958 C138.508797,29.0960958 138.614608,29.1362853 138.696003,29.2166653 C138.777398,29.2970454 138.818095,29.4015379 138.818095,29.530146 L138.818095,32.0862189 C138.818095,32.214827 138.777398,32.3193195 138.696003,32.3996996 C138.614608,32.4800796 138.508797,32.5202691 138.378565,32.5202691 L127.121724,32.5202691 C126.991492,32.5202691 126.885681,32.4800796 126.804286,32.3996996 C126.722891,32.3193195 126.682194,32.214827 126.682194,32.0862189 L126.682194,16.074592 C126.682194,15.9459839 126.722891,15.8414914 126.804286,15.7611114 C126.885681,15.6807313 126.991492,15.6405419 127.121724,15.6405419 L138.378565,15.6405419 C138.508797,15.6405419 138.614608,15.6807313 138.696003,15.7611114 C138.777398,15.8414914 138.818095,15.9459839 138.818095,16.074592 L138.818095,18.630665 Z M151.548174,32.7131802 C150.441205,32.7131802 149.468552,32.5041952 148.630186,32.0862189 C147.79182,31.6682427 147.140671,31.0774581 146.676721,30.3138476 C146.212771,29.5502371 145.980799,28.6700887 145.980799,27.673376 L145.980799,26.5641368 C145.980799,26.3551486 146.086611,26.2506561 146.298237,26.2506561 L147.397061,26.2506561 C147.608688,26.2506561 147.714499,26.3551486 147.714499,26.5641368 L147.714499,27.673376 C147.714499,28.7343927 148.068561,29.5904275 148.776696,30.2415059 C149.484831,30.8925843 150.408647,31.2181187 151.548174,31.2181187 C152.70398,31.2181187 153.635936,30.8925843 154.344071,30.2415059 C155.052205,29.5904275 155.406267,28.7343927 155.406267,27.673376 L155.406267,15.9540225 C155.406267,15.7450344 155.512079,15.6405419 155.723705,15.6405419 L156.822529,15.6405419 C157.034156,15.6405419 157.139968,15.7450344 157.139968,15.9540225 L157.139968,27.673376 C157.139968,28.6700887 156.907996,29.5502371 156.444046,30.3138476 C155.980095,31.0774581 155.324877,31.6682427 154.478372,32.0862189 C153.631866,32.5041952 152.655143,32.7131802 151.548174,32.7131802 Z M172.124671,32.5202691 C171.945603,32.5202691 171.831652,32.4318523 171.782815,32.2550162 L170.806082,29.3131209 C170.773524,29.2488169 170.732828,29.2166653 170.683991,29.2166653 L163.407334,29.2166653 C163.358497,29.2166653 163.3178,29.2488169 163.285242,29.3131209 L162.332928,32.2550162 C162.284091,32.4318523 162.17014,32.5202691 161.991072,32.5202691 L160.818993,32.5202691 C160.70504,32.5202691 160.623647,32.4881175 160.57481,32.4238135 C160.525973,32.3595094 160.517834,32.2710927 160.550392,32.1585606 L165.92242,15.9057947 C165.971257,15.7289586 166.085208,15.6405419 166.264276,15.6405419 L167.827048,15.6405419 C168.006117,15.6405419 168.120068,15.7289586 168.168905,15.9057947 L173.565351,32.1585606 C173.58163,32.1907127 173.58977,32.2309021 173.58977,32.2791301 C173.58977,32.3434342 173.561282,32.3996994 173.504306,32.4479274 C173.447329,32.4961554 173.378145,32.5202691 173.29675,32.5202691 L172.124671,32.5202691 Z M163.822445,27.673376 C163.806166,27.769832 163.838724,27.8180594 163.920119,27.8180594 L170.195624,27.8180594 C170.293298,27.8180594 170.325856,27.769832 170.293298,27.673376 L167.118917,17.8107925 C167.102638,17.7464885 167.07822,17.7143369 167.045662,17.7143369 C167.013104,17.7143369 166.988686,17.7464885 166.972407,17.8107925 L163.822445,27.673376 Z M176.804847,32.5202691 C176.593221,32.5202691 176.487409,32.4157766 176.487409,32.2067884 L176.487409,31.1698909 C176.487409,31.0412828 176.528106,30.9126766 176.609501,30.7840686 L185.497766,17.2802868 C185.546603,17.1838307 185.522185,17.1356034 185.424511,17.1356034 L176.804847,17.1356034 C176.593221,17.1356034 176.487409,17.0311109 176.487409,16.8221228 L176.487409,15.9540225 C176.487409,15.7450344 176.593221,15.6405419 176.804847,15.6405419 L187.18263,15.6405419 C187.394256,15.6405419 187.500068,15.7450344 187.500068,15.9540225 L187.500068,16.9909201 C187.500068,17.1195281 187.459371,17.2481343 187.377976,17.3767424 L178.514129,30.8805241 C178.465292,30.9769802 178.48971,31.0252075 178.587384,31.0252075 L187.18263,31.0252075 C187.394256,31.0252075 187.500068,31.1297 187.500068,31.3386882 L187.500068,32.2067884 C187.500068,32.4157766 187.394256,32.5202691 187.18263,32.5202691 L176.804847,32.5202691 Z M190.617472,32.5202691 C190.405846,32.5202691 190.300034,32.4157766 190.300034,32.2067884 L190.300034,31.1698909 C190.300034,31.0412828 190.340731,30.9126766 190.422125,30.7840686 L199.310391,17.2802868 C199.359228,17.1838307 199.334809,17.1356034 199.237136,17.1356034 L190.617472,17.1356034 C190.405846,17.1356034 190.300034,17.0311109 190.300034,16.8221228 L190.300034,15.9540225 C190.300034,15.7450344 190.405846,15.6405419 190.617472,15.6405419 L200.995254,15.6405419 C201.206881,15.6405419 201.312692,15.7450344 201.312692,15.9540225 L201.312692,16.9909201 C201.312692,17.1195281 201.271995,17.2481343 201.190601,17.3767424 L192.326754,30.8805241 C192.277917,30.9769802 192.302335,31.0252075 192.400009,31.0252075 L200.995254,31.0252075 C201.206881,31.0252075 201.312692,31.1297 201.312692,31.3386882 L201.312692,32.2067884 C201.312692,32.4157766 201.206881,32.5202691 200.995254,32.5202691 L190.617472,32.5202691 Z" id="Text" fill-rule="nonzero"></path>
                    <path d="M21.5035773,1.77635684e-14 L-2.84217094e-14,12.2603078 L-2.84217094e-14,36.7817271 L21.5035773,49.0420349 L43.0079686,36.7817271 L43.0079686,12.2603078 L21.5035773,1.77635684e-14 Z M23.3414621,18.4471293 L26.4084018,13.6155087 L36.9758322,29.3602742 L33.743662,34.1983252 L23.3414621,18.4471293 Z M12.6283358,18.6601354 L15.6952754,13.8285147 L26.2635198,29.5748879 L23.0313496,34.4105275 L12.6283358,18.6601354 Z M6.0321364,29.7340396 L10.6984754,21.9894604 L14.1398291,27.350783 L9.45883917,34.6822107 L6.0321364,29.7340396 Z" id="Imago"></path>
                </g>
            </g>
        </g>
    </g>
</svg>
