<svg xmlns="http://www.w3.org/2000/svg" width="155" height="38" viewBox="0 0 155 38">
  <g fill="#FFF" fill-rule="evenodd">
    <path fill-rule="nonzero" d="M43.8527812,25.0155925 C43.752603,25.0155925 43.6712094,24.9846776 43.6085981,24.9228468 C43.5459867,24.8610159 43.5146815,24.7806371 43.5146815,24.6817078 L43.5146815,12.3650712 C43.5146815,12.2661419 43.5459867,12.1857631 43.6085981,12.1239323 C43.6712094,12.0621014 43.752603,12.0311865 43.8527812,12.0311865 L46.275829,12.0311865 C46.4511409,12.0311865 46.5826228,12.1053824 46.6702787,12.2537763 L49.1684598,16.2418439 C49.2310712,16.328407 49.2936816,16.328407 49.356293,16.2418439 L51.8732575,12.2537763 C51.9609134,12.1053824 52.0923953,12.0311865 52.2677071,12.0311865 L54.690755,12.0311865 C54.7909332,12.0311865 54.8723267,12.0621014 54.9349381,12.1239323 C54.9975495,12.1857631 55.0288547,12.2661419 55.0288547,12.3650712 L55.0288547,24.6817078 C55.0288547,24.7806371 54.9975495,24.8610159 54.9349381,24.9228468 C54.8723267,24.9846776 54.7909332,25.0155925 54.690755,25.0155925 L52.2489238,25.0155925 C52.1487456,25.0155925 52.0673521,24.9846776 52.0047407,24.9228468 C51.9421293,24.8610159 51.9108241,24.7806371 51.9108241,24.6817078 L51.9108241,17.4289896 C51.9108241,17.3671588 51.892041,17.3300608 51.8544742,17.3176947 C51.8169073,17.3053285 51.7856021,17.3300605 51.7605576,17.3918913 L50.2391089,19.8403793 C50.151453,19.9887732 50.0199711,20.0629691 49.8446592,20.0629691 L48.6988769,20.0629691 C48.5235651,20.0629691 48.3920832,19.9887732 48.3044273,19.8403793 L46.7829786,17.3918913 C46.7579341,17.3300605 46.7266288,17.3053285 46.689062,17.3176947 C46.6514952,17.3300608 46.6327121,17.3671588 46.6327121,17.4289896 L46.6327121,24.6817078 C46.6327121,24.7806371 46.6014069,24.8610159 46.5387955,24.9228468 C46.4761841,24.9846776 46.3947906,25.0155925 46.2946124,25.0155925 L43.8527812,25.0155925 Z M62.1039041,25.2196332 C61.0895999,25.2196332 60.1974012,25.018686 59.4272814,24.6167858 C58.6571616,24.2148855 58.059232,23.649142 57.6334746,22.9195384 C57.2077173,22.1899348 56.9948419,21.3428653 56.9948419,20.3783047 L56.9948419,16.6684744 C56.9948419,15.728646 57.2077173,14.897034 57.6334746,14.1736135 C58.059232,13.450193 58.6571616,12.887541 59.4272814,12.4856407 C60.1974012,12.0837404 61.0895999,11.8827933 62.1039041,11.8827933 C63.1182082,11.8827933 64.0135374,12.0837404 64.7899184,12.4856407 C65.5662993,12.887541 66.1673595,13.450193 66.5931168,14.1736135 C67.0188741,14.897034 67.2317495,15.728646 67.2317495,16.6684744 L67.2317495,20.3783047 C67.2317495,21.3428653 67.0188741,22.1899348 66.5931168,22.9195384 C66.1673595,23.649142 65.5662993,24.2148855 64.7899184,24.6167858 C64.0135374,25.018686 63.1182082,25.2196332 62.1039041,25.2196332 Z M62.1039041,22.5856537 C62.7049732,22.5856537 63.190204,22.393981 63.5596111,22.01063 C63.9290182,21.6272789 64.113719,21.1140909 64.113719,20.4710504 L64.113719,16.6313761 C64.113719,16.0007018 63.9290182,15.4906052 63.5596111,15.1010711 C63.190204,14.7115369 62.7049732,14.5167728 62.1039041,14.5167728 C61.5153572,14.5167728 61.0363874,14.7115369 60.6669803,15.1010711 C60.2975732,15.4906052 60.1128725,16.0007018 60.1128725,16.6313761 L60.1128725,20.4710504 C60.1128725,21.1140909 60.2975732,21.6272789 60.6669803,22.01063 C61.0363874,22.393981 61.5153572,22.5856537 62.1039041,22.5856537 Z M77.4248295,18.2266031 C77.3747404,18.2513354 77.3496962,18.2822504 77.3496962,18.3193488 C77.3496962,18.3564473 77.3747404,18.3873623 77.4248295,18.4120946 C78.5393119,18.9933043 79.0965447,19.9702165 79.0965447,21.3428605 C79.0965447,22.5794768 78.6645327,23.5007421 77.8004958,24.1066841 C76.9364589,24.7126261 75.8032102,25.0155925 74.4007155,25.0155925 L69.5170531,25.0155925 C69.4168749,25.0155925 69.3354814,24.9846776 69.27287,24.9228468 C69.2102586,24.8610159 69.1789534,24.7806371 69.1789534,24.6817078 L69.1789534,12.3650712 C69.1789534,12.2661419 69.2102586,12.1857631 69.27287,12.1239323 C69.3354814,12.0621014 69.4168749,12.0311865 69.5170531,12.0311865 L74.250449,12.0311865 C75.7781664,12.0311865 76.9333288,12.315604 77.7159709,12.8844475 C78.498613,13.453291 78.8899282,14.3745563 78.8899282,15.648271 C78.8899282,16.860155 78.4015669,17.7195904 77.4248295,18.2266031 Z M72.4284672,14.665166 C72.3408113,14.665166 72.296984,14.7084469 72.296984,14.7950101 L72.296984,17.0580065 C72.296984,17.1445697 72.3408113,17.1878506 72.4284672,17.1878506 L74.250449,17.1878506 C74.7638622,17.1878506 75.1583079,17.0796483 75.4337979,16.8632405 C75.7092879,16.6468326 75.8470309,16.3407747 75.8470309,15.9450575 C75.8470309,15.5369741 75.7092879,15.2216417 75.4337979,14.9990507 C75.1583079,14.7764598 74.7638622,14.665166 74.250449,14.665166 L72.4284672,14.665166 Z M74.4007155,22.3630639 C74.9016064,22.3630639 75.2897911,22.2486786 75.5652811,22.0199046 C75.8407712,21.7911305 75.9785141,21.4603406 75.9785141,21.027525 C75.9785141,20.6070754 75.8439017,20.2824685 75.5746728,20.0536945 C75.3054439,19.8249205 74.9141287,19.7105352 74.4007155,19.7105352 L72.4284672,19.7105352 C72.3408113,19.7105352 72.296984,19.7538161 72.296984,19.8403793 L72.296984,22.2332198 C72.296984,22.3197829 72.3408113,22.3630639 72.4284672,22.3630639 L74.4007155,22.3630639 Z M81.4194149,25.0155925 C81.3192367,25.0155925 81.2378431,24.9846776 81.1752318,24.9228468 C81.1126204,24.8610159 81.0813152,24.7806371 81.0813152,24.6817078 L81.0813152,12.3650712 C81.0813152,12.2661419 81.1126204,12.1857631 81.1752318,12.1239323 C81.2378431,12.0621014 81.3192367,12.0311865 81.4194149,12.0311865 L83.8612461,12.0311865 C83.9614243,12.0311865 84.0428178,12.0621014 84.1054292,12.1239323 C84.1680406,12.1857631 84.1993458,12.2661419 84.1993458,12.3650712 L84.1993458,24.6817078 C84.1993458,24.7806371 84.1680406,24.8610159 84.1054292,24.9228468 C84.0428178,24.9846776 83.9614243,25.0155925 83.8612461,25.0155925 L81.4194149,25.0155925 Z M86.7100491,25.0155925 C86.609871,25.0155925 86.5284774,24.9846776 86.465866,24.9228468 C86.4032547,24.8610159 86.3719494,24.7806371 86.3719494,24.6817078 L86.3719494,12.3650712 C86.3719494,12.2661419 86.4032547,12.1857631 86.465866,12.1239323 C86.5284774,12.0621014 86.609871,12.0311865 86.7100491,12.0311865 L89.1518803,12.0311865 C89.2520585,12.0311865 89.3334521,12.0621014 89.3960635,12.1239323 C89.4586748,12.1857631 89.48998,12.2661419 89.48998,12.3650712 L89.48998,22.2517689 C89.48998,22.3383321 89.5338073,22.381613 89.6214633,22.381613 L95.4630748,22.381613 C95.563253,22.381613 95.6446465,22.412528 95.7072579,22.4743588 C95.7698693,22.5361896 95.8011745,22.6165684 95.8011745,22.7154977 L95.8011745,24.6817078 C95.8011745,24.7806371 95.7698693,24.8610159 95.7072579,24.9228468 C95.6446465,24.9846776 95.563253,25.0155925 95.4630748,25.0155925 L86.7100491,25.0155925 Z M106.783154,14.3312813 C106.783154,14.4302106 106.751849,14.5105894 106.689237,14.5724203 C106.626626,14.6342511 106.545232,14.665166 106.445054,14.665166 L100.697359,14.665166 C100.609703,14.665166 100.565876,14.7084469 100.565876,14.7950101 L100.565876,17.0023591 C100.565876,17.0889222 100.609703,17.1322032 100.697359,17.1322032 L104.322539,17.1322032 C104.422717,17.1322032 104.504111,17.1631181 104.566722,17.2249489 C104.629334,17.2867797 104.660639,17.3671586 104.660639,17.4660879 L104.660639,19.4137488 C104.660639,19.5126781 104.629334,19.5930569 104.566722,19.6548877 C104.504111,19.7167186 104.422717,19.7476335 104.322539,19.7476335 L100.697359,19.7476335 C100.609703,19.7476335 100.565876,19.7909144 100.565876,19.8774776 L100.565876,22.2517689 C100.565876,22.3383321 100.609703,22.381613 100.697359,22.381613 L106.445054,22.381613 C106.545232,22.381613 106.626626,22.412528 106.689237,22.4743588 C106.751849,22.5361896 106.783154,22.6165684 106.783154,22.7154977 L106.783154,24.6817078 C106.783154,24.7806371 106.751849,24.8610159 106.689237,24.9228468 C106.626626,24.9846776 106.545232,25.0155925 106.445054,25.0155925 L97.785945,25.0155925 C97.6857668,25.0155925 97.6043732,24.9846776 97.5417619,24.9228468 C97.4791505,24.8610159 97.4478453,24.7806371 97.4478453,24.6817078 L97.4478453,12.3650712 C97.4478453,12.2661419 97.4791505,12.1857631 97.5417619,12.1239323 C97.6043732,12.0621014 97.6857668,12.0311865 97.785945,12.0311865 L106.445054,12.0311865 C106.545232,12.0311865 106.626626,12.0621014 106.689237,12.1239323 C106.751849,12.1857631 106.783154,12.2661419 106.783154,12.3650712 L106.783154,14.3312813 Z M116.575523,25.1639857 C115.724008,25.1639857 114.975814,25.003228 114.330917,24.6817078 C113.686019,24.3601876 113.185136,23.9057379 112.828251,23.3183452 C112.471366,22.7309524 112.292927,22.0539152 112.292927,21.2872131 L112.292927,20.4339521 C112.292927,20.273192 112.37432,20.1928131 112.53711,20.1928131 L113.382359,20.1928131 C113.545149,20.1928131 113.626542,20.273192 113.626542,20.4339521 L113.626542,21.2872131 C113.626542,22.1033798 113.898898,22.7618681 114.443616,23.2626977 C114.988335,23.7635273 115.698964,24.0139383 116.575523,24.0139383 C117.464604,24.0139383 118.181494,23.7635273 118.726213,23.2626977 C119.270932,22.7618681 119.543287,22.1033798 119.543287,21.2872131 L119.543287,12.2723255 C119.543287,12.1115654 119.624681,12.0311865 119.78747,12.0311865 L120.632719,12.0311865 C120.795509,12.0311865 120.876903,12.1115654 120.876903,12.2723255 L120.876903,21.2872131 C120.876903,22.0539152 120.698463,22.7309524 120.341578,23.3183452 C119.984693,23.9057379 119.480679,24.3601876 118.829521,24.6817078 C118.178363,25.003228 117.427038,25.1639857 116.575523,25.1639857 Z M132.403598,25.0155925 C132.265853,25.0155925 132.178198,24.9475796 132.140632,24.8115518 L131.389299,22.5485554 C131.364254,22.4990907 131.332949,22.4743588 131.295382,22.4743588 L125.697954,22.4743588 C125.660387,22.4743588 125.629082,22.4990907 125.604037,22.5485554 L124.871488,24.8115518 C124.833921,24.9475796 124.746266,25.0155925 124.608521,25.0155925 L123.706922,25.0155925 C123.619266,25.0155925 123.556656,24.9908606 123.519089,24.9413959 C123.481522,24.8919313 123.475261,24.8239184 123.500306,24.7373552 L127.632635,12.2352272 C127.670202,12.0991994 127.757857,12.0311865 127.895602,12.0311865 L129.097734,12.0311865 C129.235479,12.0311865 129.323134,12.0991994 129.360701,12.2352272 L133.511814,24.7373552 C133.524336,24.7620876 133.530597,24.7930025 133.530597,24.830101 C133.530597,24.8795656 133.508683,24.9228466 133.464855,24.9599451 C133.421027,24.9970435 133.367809,25.0155925 133.305197,25.0155925 L132.403598,25.0155925 Z M126.01727,21.2872131 C126.004748,21.36141 126.029792,21.398508 126.092404,21.398508 L130.919716,21.398508 C130.99485,21.398508 131.019894,21.36141 130.994849,21.2872131 L128.553018,13.7006101 C128.540496,13.6511455 128.521713,13.6264135 128.496668,13.6264135 C128.471624,13.6264135 128.45284,13.6511455 128.440318,13.7006101 L126.01727,21.2872131 Z M136.003734,25.0155925 C135.840944,25.0155925 135.759551,24.9352137 135.759551,24.7744535 L135.759551,23.97684 C135.759551,23.8779107 135.790856,23.7789829 135.853467,23.6800536 L142.690594,13.2925288 C142.728161,13.2183318 142.709378,13.1812339 142.634245,13.1812339 L136.003734,13.1812339 C135.840944,13.1812339 135.759551,13.100855 135.759551,12.9400949 L135.759551,12.2723255 C135.759551,12.1115654 135.840944,12.0311865 136.003734,12.0311865 L143.986643,12.0311865 C144.149433,12.0311865 144.230826,12.1115654 144.230826,12.2723255 L144.230826,13.069939 C144.230826,13.1688683 144.199521,13.2677961 144.13691,13.3667254 L137.318566,23.7542502 C137.280999,23.8284472 137.299782,23.8655451 137.374916,23.8655451 L143.986643,23.8655451 C144.149433,23.8655451 144.230826,23.945924 144.230826,24.1066841 L144.230826,24.7744535 C144.230826,24.9352137 144.149433,25.0155925 143.986643,25.0155925 L136.003734,25.0155925 Z M146.62883,25.0155925 C146.46604,25.0155925 146.384647,24.9352137 146.384647,24.7744535 L146.384647,23.97684 C146.384647,23.8779107 146.415952,23.7789829 146.478563,23.6800536 L153.315691,13.2925288 C153.353258,13.2183318 153.334474,13.1812339 153.259341,13.1812339 L146.62883,13.1812339 C146.46604,13.1812339 146.384647,13.100855 146.384647,12.9400949 L146.384647,12.2723255 C146.384647,12.1115654 146.46604,12.0311865 146.62883,12.0311865 L154.61174,12.0311865 C154.774529,12.0311865 154.855923,12.1115654 154.855923,12.2723255 L154.855923,13.069939 C154.855923,13.1688683 154.824618,13.2677961 154.762006,13.3667254 L147.943662,23.7542502 C147.906095,23.8284472 147.924878,23.8655451 148.000012,23.8655451 L154.61174,23.8655451 C154.774529,23.8655451 154.855923,23.945924 154.855923,24.1066841 L154.855923,24.7744535 C154.855923,24.9352137 154.774529,25.0155925 154.61174,25.0155925 L146.62883,25.0155925 Z"/>
    <path d="M16.5412139,1.77635684e-14 L-2.84217094e-14,9.43100633 L-2.84217094e-14,28.2936373 L16.5412139,37.7246436 L33.083054,28.2936373 L33.083054,9.43100633 L16.5412139,1.77635684e-14 Z M17.9549715,14.1901 L20.314156,10.4734686 L28.4429489,22.5848271 L25.956664,26.306405 L17.9549715,14.1901 Z M9.71410478,14.3539508 L12.0732892,10.6373194 L20.2027083,22.7499146 L17.7164234,26.4696375 L9.71410478,14.3539508 Z M4.64010509,22.872339 L8.22959673,16.9149702 L10.876792,21.0390646 L7.2760304,26.6786246 L4.64010509,22.872339 Z"/>
  </g>
</svg>
