<?xml version="1.0" encoding="UTF-8"?>
<svg width="1094px" height="426px" viewBox="0 0 1094 426" version="1.1" xmlns="http://www.w3.org/2000/svg" xmlns:xlink="http://www.w3.org/1999/xlink">
    <title>as_harmony_logo</title>
    <defs>
        <linearGradient x1="70.2345455%" y1="26.3809241%" x2="-26.792583%" y2="98.3449026%" id="linearGradient-1">
            <stop stop-color="#00FFFF" offset="2.944282%"></stop>
            <stop stop-color="#29ABE2" offset="100%"></stop>
        </linearGradient>
        <linearGradient x1="54.5892363%" y1="5.15777885%" x2="45.0234665%" y2="118.201%" id="linearGradient-2">
            <stop stop-color="#00FFD4" offset="0%"></stop>
            <stop stop-color="#29C9E2" offset="100%"></stop>
        </linearGradient>
        <linearGradient x1="3.11601788%" y1="21.5005114%" x2="99.8013276%" y2="98.0466092%" id="linearGradient-3">
            <stop stop-color="#00FFAA" offset="0%"></stop>
            <stop stop-color="#29E2DC" offset="100%"></stop>
        </linearGradient>
        <linearGradient x1="6.96492916%" y1="63.7832056%" x2="135.785541%" y2="35.0679725%" id="linearGradient-4">
            <stop stop-color="#00FF80" offset="0%"></stop>
            <stop stop-color="#29E2BD" offset="100%"></stop>
        </linearGradient>
        <linearGradient x1="54.5638529%" y1="78.4185523%" x2="45.4539658%" y2="-15.4517622%" id="linearGradient-5">
            <stop stop-color="#00D4FF" offset="0%"></stop>
            <stop stop-color="#298CE2" offset="100%"></stop>
        </linearGradient>
        <linearGradient x1="96.003217%" y1="77.5742445%" x2="1.8871647%" y2="3.5612952%" id="linearGradient-6">
            <stop stop-color="#00D4FF" offset="0%"></stop>
            <stop stop-color="#298CE2" offset="100%"></stop>
        </linearGradient>
    </defs>
    <g id="as_harmony_logo" stroke="none" stroke-width="1" fill="none" fill-rule="evenodd">
        <g id="Group" transform="translate(52.000000, 52.040245)" fill-rule="nonzero">
            <path d="M924.035642,135.113751 C925.072442,135.113751 925.763642,135.574551 926.109242,136.496151 L948.573242,206.307351 C948.688442,206.537751 948.861242,206.652951 949.091642,206.652951 C949.322042,206.652951 949.494842,206.537751 949.610042,206.307351 L971.728442,136.496151 C972.074042,135.574551 972.765242,135.113751 973.802042,135.113751 L982.787642,135.113751 C984.054842,135.113751 984.515642,135.747351 984.170042,137.014551 L952.202042,230.153751 C949.437242,237.872151 946.845242,243.574551 944.426042,247.260951 C942.006842,250.947351 938.982842,253.510551 935.354042,254.950551 C931.725242,256.390551 926.627642,257.110551 920.061242,257.110551 L918.851642,257.110551 C918.045242,257.110551 917.642042,256.534551 917.642042,255.382551 L917.642042,248.470551 C917.642042,247.318551 918.218042,246.742551 919.370042,246.742551 L920.061242,246.742551 C924.554042,246.627351 928.038842,245.964951 930.515642,244.755351 C932.992442,243.545751 935.123642,241.299351 936.909242,238.016151 C938.694842,234.732951 940.624442,229.750551 942.698042,223.068951 C942.928442,222.608151 942.928442,222.262551 942.698042,222.032151 L913.494842,137.014551 L913.322042,136.323351 C913.322042,135.516951 913.840442,135.113751 914.877242,135.113751 L924.035642,135.113751 Z M486.410042,133.731351 C496.778042,133.731351 504.784442,136.380951 510.429242,141.680151 C516.074042,146.979351 518.896442,154.006551 518.896442,162.761751 L518.896442,220.822551 C518.896442,221.974551 518.320442,222.550551 517.168442,222.550551 L508.355642,222.550551 C507.203642,222.550551 506.627642,221.974551 506.627642,220.822551 L506.627642,213.737751 C506.627642,213.507351 506.541242,213.334551 506.368442,213.219351 C506.195642,213.104151 505.994042,213.161751 505.763642,213.392151 C502.883642,216.848151 499.139642,219.468951 494.531642,221.254551 C489.923642,223.040151 484.797242,223.932951 479.152442,223.932951 C470.973242,223.932951 464.118842,221.859351 458.589242,217.712151 C453.059642,213.564951 450.294842,207.228951 450.294842,198.704151 C450.294842,190.064151 453.434042,183.238551 459.712442,178.227351 C465.990842,173.216151 474.717242,170.710551 485.891642,170.710551 L505.936442,170.710551 C506.397242,170.710551 506.627642,170.480151 506.627642,170.019351 L506.627642,163.452951 C506.627642,157.577751 504.986042,152.940951 501.702842,149.542551 C498.419642,146.144151 493.322042,144.444951 486.410042,144.444951 C480.880442,144.444951 476.387642,145.510551 472.931642,147.641751 C469.475642,149.772951 467.344442,152.739351 466.538042,156.540951 C466.192442,157.692951 465.501242,158.211351 464.464442,158.096151 L455.133242,156.886551 C453.866042,156.656151 453.347642,156.195351 453.578042,155.504151 C454.499642,149.052951 457.955642,143.811351 463.946042,139.779351 C469.936442,135.747351 477.424442,133.731351 486.410042,133.731351 Z M775.389242,133.731351 C783.568442,133.731351 790.624442,135.862551 796.557242,140.124951 C802.490042,144.387351 806.550842,150.147351 808.739642,157.404951 C810.352442,162.358551 811.158842,169.443351 811.158842,178.659351 C811.158842,187.990551 810.352442,195.075351 808.739642,199.913751 C806.550842,207.401751 802.490042,213.276951 796.557242,217.539351 C790.624442,221.801751 783.510842,223.932951 775.216442,223.932951 C766.922042,223.932951 759.779642,221.801751 753.789242,217.539351 C747.798842,213.276951 743.651642,207.401751 741.347642,199.913751 C739.734842,194.614551 738.928442,187.529751 738.928442,178.659351 C738.928442,169.788951 739.734842,162.761751 741.347642,157.577751 C743.536442,150.204951 747.626042,144.387351 753.616442,140.124951 C759.606842,135.862551 766.864442,133.731351 775.389242,133.731351 Z M358.518842,101.590551 C359.670842,101.590551 360.246842,102.166551 360.246842,103.318551 L360.246842,155.676951 C360.246842,156.137751 360.477242,156.368151 360.938042,156.368151 L416.061242,156.368151 C416.522042,156.368151 416.752442,156.137751 416.752442,155.676951 L416.752442,103.318551 C416.752442,102.166551 417.328442,101.590551 418.480442,101.590551 L427.293242,101.590551 C428.445242,101.590551 429.021242,102.166551 429.021242,103.318551 L429.021242,220.822551 C429.021242,221.974551 428.445242,222.550551 427.293242,222.550551 L418.480442,222.550551 C417.328442,222.550551 416.752442,221.974551 416.752442,220.822551 L416.752442,167.772951 C416.752442,167.312151 416.522042,167.081751 416.061242,167.081751 L360.938042,167.081751 C360.477242,167.081751 360.246842,167.312151 360.246842,167.772951 L360.246842,220.822551 C360.246842,221.974551 359.670842,222.550551 358.518842,222.550551 L349.706042,222.550551 C348.554042,222.550551 347.978042,221.974551 347.978042,220.822551 L347.978042,103.318551 C347.978042,102.166551 348.554042,101.590551 349.706042,101.590551 L358.518842,101.590551 Z M577.322042,134.249751 C581.123642,134.249751 584.406842,134.998551 587.171642,136.496151 C588.093242,136.956951 588.438842,137.705751 588.208442,138.742551 L586.307642,147.209751 C585.962042,148.361751 585.213242,148.707351 584.061242,148.246551 C582.102842,147.440151 579.856442,147.036951 577.322042,147.036951 L575.075642,147.209751 C569.085242,147.440151 564.131642,149.657751 560.214842,153.862551 C556.298042,158.067351 554.339642,163.395351 554.339642,169.846551 L554.339642,220.822551 C554.339642,221.974551 553.763642,222.550551 552.611642,222.550551 L543.798842,222.550551 C542.646842,222.550551 542.070842,221.974551 542.070842,220.822551 L542.070842,136.841751 C542.070842,135.689751 542.646842,135.113751 543.798842,135.113751 L552.611642,135.113751 C553.763642,135.113751 554.339642,135.689751 554.339642,136.841751 L554.339642,147.382551 C554.339642,147.728151 554.426042,147.929751 554.598842,147.987351 C554.771642,148.044951 554.915642,147.958551 555.030842,147.728151 C557.450042,143.465751 560.531642,140.153751 564.275642,137.792151 C568.019642,135.430551 572.368442,134.249751 577.322042,134.249751 Z M691.043642,133.904151 C699.683642,133.904151 706.509242,136.496151 711.520442,141.680151 C716.531642,146.864151 719.037242,153.948951 719.037242,162.934551 L719.037242,220.822551 C719.037242,221.974551 718.461242,222.550551 717.309242,222.550551 L708.669242,222.550551 C707.517242,222.550551 706.941242,221.974551 706.941242,220.822551 L706.941242,165.353751 C706.941242,159.017751 705.126842,153.977751 701.498042,150.233751 C697.869242,146.489751 693.117242,144.617751 687.242042,144.617751 C681.136442,144.617751 676.211642,146.460951 672.467642,150.147351 C668.723642,153.833751 666.851642,158.787351 666.851642,165.008151 L666.851642,220.822551 C666.851642,221.974551 666.275642,222.550551 665.123642,222.550551 L656.310842,222.550551 C655.158842,222.550551 654.582842,221.974551 654.582842,220.822551 L654.582842,165.353751 C654.582842,159.017751 652.797242,153.977751 649.226042,150.233751 C645.654842,146.489751 640.874042,144.617751 634.883642,144.617751 C628.778042,144.617751 623.910842,146.460951 620.282042,150.147351 C616.653242,153.833751 614.838842,158.787351 614.838842,165.008151 L614.838842,220.822551 C614.838842,221.974551 614.262842,222.550551 613.110842,222.550551 L604.298042,222.550551 C603.146042,222.550551 602.570042,221.974551 602.570042,220.822551 L602.570042,136.841751 C602.570042,135.689751 603.146042,135.113751 604.298042,135.113751 L613.110842,135.113751 C614.262842,135.113751 614.838842,135.689751 614.838842,136.841751 L614.838842,143.753751 C614.838842,143.984151 614.925242,144.128151 615.098042,144.185751 C615.270842,144.243351 615.472442,144.156951 615.702842,143.926551 C618.237242,140.585751 621.491642,138.080151 625.466042,136.409751 C629.440442,134.739351 633.846842,133.904151 638.685242,133.904151 C644.675642,133.904151 649.802042,135.113751 654.064442,137.532951 C658.326842,139.952151 661.552442,143.465751 663.741242,148.073751 C663.971642,148.649751 664.259642,148.649751 664.605242,148.073751 C667.139642,143.350551 670.710842,139.808151 675.318842,137.446551 C679.926842,135.084951 685.168442,133.904151 691.043642,133.904151 Z M869.930042,133.904151 C879.146042,133.904151 886.490042,136.611351 891.962042,142.025751 C897.434042,147.440151 900.170042,154.697751 900.170042,163.798551 L900.170042,220.822551 C900.170042,221.974551 899.594042,222.550551 898.442042,222.550551 L889.629242,222.550551 C888.477242,222.550551 887.901242,221.974551 887.901242,220.822551 L887.901242,166.217751 C887.901242,159.881751 885.971642,154.697751 882.112442,150.665751 C878.253242,146.633751 873.270842,144.617751 867.165242,144.617751 C860.829242,144.617751 855.702842,146.576151 851.786042,150.492951 C847.869242,154.409751 845.910842,159.536151 845.910842,165.872151 L845.910842,220.822551 C845.910842,221.974551 845.334842,222.550551 844.182842,222.550551 L835.370042,222.550551 C834.218042,222.550551 833.642042,221.974551 833.642042,220.822551 L833.642042,136.841751 C833.642042,135.689751 834.218042,135.113751 835.370042,135.113751 L844.182842,135.113751 C845.334842,135.113751 845.910842,135.689751 845.910842,136.841751 L845.910842,144.272151 C845.910842,144.502551 845.997242,144.675351 846.170042,144.790551 C846.342842,144.905751 846.486842,144.848151 846.602042,144.617751 C851.670842,137.475351 859.446842,133.904151 869.930042,133.904151 Z M505.936442,180.387351 L487.792442,180.387351 C480.189242,180.387351 474.083642,181.942551 469.475642,185.052951 C464.867642,188.163351 462.563642,192.483351 462.563642,198.012951 C462.563642,203.081751 464.320442,206.912151 467.834042,209.504151 C471.347642,212.096151 475.926842,213.392151 481.571642,213.392151 C488.368442,213.392151 494.243642,211.692951 499.197242,208.294551 C504.150842,204.896151 506.627642,200.316951 506.627642,194.556951 L506.627642,181.078551 C506.627642,180.617751 506.397242,180.387351 505.936442,180.387351 Z M775.043642,144.444951 C769.398842,144.444951 764.618042,145.971351 760.701242,149.024151 C756.784442,152.076951 754.134842,156.195351 752.752442,161.379351 C751.830842,165.411351 751.370042,171.228951 751.370042,178.832151 C751.370042,186.435351 751.830842,192.252951 752.752442,196.284951 C754.019642,201.468951 756.640442,205.587351 760.614842,208.640151 C764.589242,211.692951 769.456442,213.219351 775.216442,213.219351 C780.746042,213.219351 785.469242,211.692951 789.386042,208.640151 C793.302842,205.587351 795.952442,201.468951 797.334842,196.284951 C798.371642,192.137751 798.890042,186.320151 798.890042,178.832151 C798.890042,171.228951 798.429242,165.411351 797.507642,161.379351 C796.125242,156.195351 793.446842,152.076951 789.472442,149.024151 C785.498042,145.971351 780.688442,144.444951 775.043642,144.444951 Z" id="Combined-Shape" fill="#595959"></path>
            <polygon id="Path" fill="url(#linearGradient-1)" points="191.447231 30.1434821 52.2311439 110.633421 52.2311439 50.2659668 139.296443 0"></polygon>
            <polygon id="Path" fill="url(#linearGradient-2)" points="52.2311439 50.2659668 52.2311439 211.245844 6.03961325e-14 181.062117 6.03961325e-14 80.4496938"></polygon>
            <polygon id="Path" fill="url(#linearGradient-3)" points="5.68434189e-14 181.062117 5.68434189e-14 241.429571 87.0251213 291.735783 139.216087 261.552056"></polygon>
            <polygon id="Path" fill="url(#linearGradient-4)" points="87.0251213 291.735783 139.296443 321.959755 226.201031 271.613298 226.241209 211.245844"></polygon>
            <polygon id="Path" fill="url(#linearGradient-5)" points="226.201031 271.613298 278.51253 241.429571 278.51253 140.817148 226.201031 110.673666"></polygon>
            <polygon id="Path" fill="url(#linearGradient-6)" points="139.216087 60.3272091 191.447231 30.1434821 278.51253 80.4496938 278.51253 140.817148"></polygon>
        </g>
    </g>
</svg>